<svg width="14" height="15" viewBox="0 0 14 15" fill="none" xmlns="http://www.w3.org/2000/svg">
<path d="M11.9031 2.53437C10.5938 1.22187 8.85 0.5 6.99687 0.5C3.17187 0.5 0.059375 3.6125 0.059375 7.4375C0.059375 8.65938 0.378125 9.85312 0.984375 10.9062L0 14.5L3.67812 13.5344C4.69063 14.0875 5.83125 14.3781 6.99375 14.3781H6.99687C10.8188 14.3781 14 11.2656 14 7.44063C14 5.5875 13.2125 3.84687 11.9031 2.53437ZM6.99687 13.2094C5.95937 13.2094 4.94375 12.9312 4.05937 12.4062L3.85 12.2812L1.66875 12.8531L2.25 10.725L2.1125 10.5063C1.53437 9.5875 1.23125 8.52812 1.23125 7.4375C1.23125 4.25938 3.81875 1.67188 7 1.67188C8.54062 1.67188 9.9875 2.27187 11.075 3.3625C12.1625 4.45312 12.8313 5.9 12.8281 7.44063C12.8281 10.6219 10.175 13.2094 6.99687 13.2094ZM10.1594 8.89062C9.9875 8.80313 9.13438 8.38438 8.975 8.32812C8.81563 8.26875 8.7 8.24062 8.58438 8.41562C8.46875 8.59062 8.1375 8.97813 8.03438 9.09688C7.93438 9.2125 7.83125 9.22812 7.65938 9.14062C6.64062 8.63125 5.97188 8.23125 5.3 7.07812C5.12188 6.77187 5.47812 6.79375 5.80937 6.13125C5.86562 6.01562 5.8375 5.91563 5.79375 5.82812C5.75 5.74062 5.40313 4.8875 5.25938 4.54063C5.11875 4.20312 4.975 4.25 4.86875 4.24375C4.76875 4.2375 4.65312 4.2375 4.5375 4.2375C4.42188 4.2375 4.23438 4.28125 4.075 4.45312C3.91562 4.62813 3.46875 5.04688 3.46875 5.9C3.46875 6.75313 4.09063 7.57813 4.175 7.69375C4.2625 7.80938 5.39687 9.55937 7.1375 10.3125C8.2375 10.7875 8.66875 10.8281 9.21875 10.7469C9.55313 10.6969 10.2437 10.3281 10.3875 9.92188C10.5312 9.51562 10.5312 9.16875 10.4875 9.09688C10.4469 9.01875 10.3313 8.975 10.1594 8.89062Z" fill="white"/>
</svg>
